<svg xmlns="http://www.w3.org/2000/svg" xml:space="preserve" width="512" height="512"><g style="display:inline"><path d="M422.979 53.203c21.182 4.209 39.72 12.257 53.696 28.897 11.094 13.208 14.812 29.164 17.698 45.538 1.22 6.926.978 13.66-1.429 20.233-1.03 2.812-.073 5.093 1.124 7.4 4.616 8.893 9.347 17.726 13.92 26.64 5.223 10.179 3.444 15.347-7.484 19.123-5.309 1.835-5.97 4.511-6.21 9.728-.27 5.85-.165 12.411-4.406 17.53-2.539 3.063-2.94 6.592-2.693 10.458.856 13.423-5.44 20.133-18.85 20.43-6.333.14-12.566-.308-18.771-1.79-8.263-1.972-10.777-.193-13.715 7.849-4.074 11.151-4.83 19.714 6.135 29.394 17.87 15.776 27.392 38.04 36.95 59.646 8.208 18.552 14.61 37.688 16.148 58.093.769 10.2-.673 20.378-1.365 30.536-1.359 19.963-3.417 39.879-4.862 59.837-.313 4.328-1.74 5.727-6.014 5.722a63998 63998 0 0 0-188.21.065c-4.145.008-5.747-1.162-6.135-5.592-2.314-26.42-3.838-52.89-5.45-79.355-.744-12.21-2.257-24.382-2.695-36.597-1.402-39.062 3.425-76.711 27.03-109.604 3.002-4.182 6.877-7.774 10.56-11.425 12.241-12.13 19.282-26.843 20.514-43.892.743-10.27-2.138-20.24-6.562-29.582-5.867-12.385-13.016-24.308-14.778-38.217-3.736-29.494.93-56.807 23.06-78.542C354.893 61.28 373.38 54.55 393.699 52.25c9.69-1.096 19.242-.624 29.28.953" style="stroke-width:1.11374" transform="translate(-210.546 1.496)scale(.90864)"/><path d="M603.93 506.983c-21.182-4.209-39.719-12.257-53.695-28.897-11.095-13.208-14.812-29.164-17.698-45.538-1.221-6.925-.978-13.66 1.429-20.233 1.03-2.812.073-5.093-1.125-7.4-4.615-8.893-9.347-17.726-13.92-26.64-5.222-10.179-3.443-15.347 7.485-19.123 5.309-1.835 5.97-4.511 6.21-9.728.27-5.85.165-12.411 4.406-17.53 2.538-3.063 2.94-6.592 2.693-10.458-.857-13.423 5.439-20.133 18.85-20.43 6.332-.14 12.566.308 18.771 1.79 8.262 1.972 10.777.193 13.715-7.849 4.073-11.151 4.83-19.713-6.135-29.394-17.87-15.776-27.392-38.04-36.95-59.646-8.208-18.552-14.61-37.688-16.148-58.092-.77-10.2.673-20.38 1.364-30.537 1.36-19.963 3.417-39.879 4.863-59.837.313-4.328 1.74-5.727 6.013-5.722a63998 63998 0 0 0 188.21-.065c4.145-.008 5.748 1.162 6.136 5.592 2.314 26.42 3.838 52.89 5.45 79.355.743 12.21 2.257 24.382 2.695 36.597 1.401 39.062-3.425 76.711-27.031 109.604-3.002 4.182-6.876 7.774-10.56 11.425-12.24 12.13-19.281 26.843-20.514 43.892-.742 10.27 2.138 20.24 6.563 29.582 5.866 12.385 13.016 24.308 14.778 38.217 3.736 29.495-.93 56.807-23.06 78.542-14.708 14.446-33.195 21.177-53.514 23.476-9.69 1.096-19.242.624-29.28-.953" style="display:inline;stroke-width:1.11374" transform="translate(-210.546 1.496)scale(.90864)"/></g></svg>