<svg xmlns="http://www.w3.org/2000/svg" xml:space="preserve" width="512" height="512"><g style="display:inline"><path d="M277.247 86.901c4.197.344 8.082.763 11.979 1.02 16.426 1.079 32.588 3.857 48.683 7.22 28.43 5.94 55.977 14.572 82.755 25.84 14.021 5.9 24.457 15.088 30.712 29.075 6.863 15.348 12.818 30.964 15.553 47.642 1.186 7.234 1.439 14.49.329 21.771-.781 5.124-1.717 5.83-7.184 4.708-12.048-2.472-23.935-5.604-35.773-8.927-17.918-5.03-35.836-10.055-53.108-17.097-6.164-2.512-12.047-5.592-17.933-8.67-2.423-1.268-4.316-3.043-4.7-5.892-2.214-16.421-13.968-22.473-28.117-25.891-11.71-2.83-23.722-3.088-35.651-3.81-14.46-.873-28.96-1.255-43.436-.66-16.844.693-33.724 1.379-50.247 5.224-5.306 1.235-10.546 2.796-15.264 5.632-5.577 3.352-9.368 8.203-10.778 14.561-.983 4.435-3.459 7.19-7.361 9.31-28.98 15.737-59.394 27.582-91.797 34.04-5.219 1.041-10.542 1.559-15.814 2.332-2.775.406-4.224-.784-4.842-3.519-2.061-9.124-1.273-18.158.585-27.185 3.419-16.614 9.215-32.376 16.652-47.604 5.565-11.394 14.663-18.729 25.96-23.689 28.404-12.471 57.872-21.587 88.261-27.763 19.754-4.015 39.68-6.596 59.842-7.246.647-.02 1.292-.146 2.184-.322 12.9-.1 25.552-.1 38.51-.1M100.339 359.561c-2.518-2.58-4.933-4.944-7.189-7.451-7.304-8.12-7.484-14.472-.574-22.905 9.26-11.299 19.112-22.038 30.041-31.771 24.276-21.62 51.177-38.763 82.53-48.208 22.35-6.732 45.06-8.959 68.357-5.83 33.353 4.48 63.053 17.764 90.697 36.312 18.608 12.486 35.567 26.945 51.092 43.092 1.733 1.802 3.432 3.654 4.977 5.618 6.366 8.093 5.738 14.599-1.917 21.35-7.43 6.554-14.91 13.051-22.786 19.069-24.272 18.543-50.217 34.158-79.009 44.682-21.657 7.916-43.955 12.442-67.127 11.443-22.151-.956-43.534-5.777-64.11-13.935-29.361-11.641-56.378-27.334-80.65-47.632-1.419-1.187-2.772-2.453-4.332-3.834m187.168 25.263c22.198-14.486 32.572-38.41 27.58-63.602-6.318-31.893-38.796-53.385-70.77-46.808-31.742 6.53-54 36.474-47.39 71.528 5.088 26.985 31.004 47.937 58.525 47.984 11.368.02 21.937-2.911 32.055-9.102M127.26 353.217c23.535 17.578 48.871 31.703 77.246 40.422-16.596-16.514-26.464-35.76-26.554-59.445-.09-23.61 9.03-43.165 26.642-59.693-1.373.101-1.81.068-2.207.178-.73.2-1.448.457-2.153.738-25.675 10.212-48.535 24.913-68.961 43.439-5.972 5.416-11.352 11.416-16.383 17.731-2.011 2.524-1.988 4.323.626 6.545 3.81 3.24 7.406 6.736 11.744 10.085m193.236 35.127c26.708-11.576 50.845-27.165 72.508-46.582 4.405-3.948 4.429-5.042.395-9.26-23.042-24.095-50.077-42.427-80.636-55.631-.886-.383-1.838-1.094-3.268-.393 16.726 16.379 25.005 36.046 24.518 59.29-.49 23.33-10.191 42.293-27.766 57.988 5.083-1.374 9.441-3.29 14.25-5.412"/><path d="M114.806 260.27c-5.22 1.67-10.24 3.136-15.146 4.915-24.457 8.865-41.593-5.748-48.563-23.822-2.673-6.932-2.453-7.176 4.978-8.207 37.856-5.252 73.431-17.232 106.638-36.19.931-.53 1.9-.995 2.832-1.48.402.294.798.427.886.672 5.54 15.29 6.27 30.124-6.412 43.072-5.09 5.197-11.584 8.472-18.343 11.06-8.843 3.385-17.743 6.62-26.87 9.98M431.344 227.861c9.022 2.22 17.79 4.345 26.668 5.988 4.203.778 4.822 1.81 3.447 5.776-4.507 13.002-12.164 23.076-25.972 27.118-5.437 1.592-11.012 1.257-16.452-.165-18.246-4.771-35.822-11.527-53.144-18.85-12.68-5.36-21.29-14.545-22.877-28.974-.716-6.513.605-12.765 2.383-18.955.754-2.625 2.4-1.822 4.08-.966a312.6 312.6 0 0 0 52.656 21.056c9.583 2.861 19.294 5.294 29.21 7.972M272.33 368.744c-17.932 7.953-38.24 1.996-48.898-14.085-9.028-13.62-7.274-32.134-.359-40.14 2.215 7.514 6.71 12.218 14.877 11.201 5.547-.691 10.255-5.73 10.514-11.044.384-7.877-4.088-12.235-11.54-14.341 9.824-5.905 20.132-6.886 30.842-3.616 14.969 4.571 25.463 17.842 26.91 33.664 1.469 16.044-6.856 30.438-22.346 38.36"/></g></svg>