<svg xmlns="http://www.w3.org/2000/svg" xml:space="preserve" width="512" height="512"><g style="display:inline"><path d="M224.418 185.004c-9.07 29.79-19.11 59.252-26.233 89.761 7.907 8.66 12.368-16.61 16.582-22.678 7.73-20.395 27.505-31.961 31.417-54.568 2.998-15.434-14.657-7.532-21.766-12.515m34.487 31.377c-.24 16.348-21.617 31.418-6.912 47.167 9.888 11.052 3.38 25.298 3.373 37.433 8.623 9.36 7.65-11.327 11.99-16.455 6.022-18.793-19.71-31.232-6.443-48.562 3.56-5.576 6.697-19.007-2.008-19.583m25.415 29.51c-16.938 14.419 5.785 32.668 5.925 47.904-5.484 6.713-5.688 26.89 4.525 13.5 12.69-15.816.982-33.546-8.068-45.537-1.201-4.087 2.764-15.726-2.382-15.867m-54.367 9.562c5.8 16.255-16.771 27.26-8.93 43.187.794 8.061 17.29 19.63 11.988 4.9-13.018-15.014 16.696-35.38-1.148-48.914l-.942.104zm24.072 59.804c-25.654 2.817-51.68 27.833-49.602 59.093 6.241 14.275-6.145 32.547 3.897 44.581 12.752 1.977 26.168 6.157 21.095 23.915 3.99 10.14 13.569 5.07 11.316-4.585 7.015-4.552 3.397 23.095 14.705 14.342 1.49-4.353 2.108-22.59 6.731-12.272-4.558 12.54 14.84 18.967 11.275 3.527 3.177-14 7.054-1.63 8.124 4.957 15.8 1.313 1.79-25.204 15.188-26.128 15.987 3.38 23.146-16.333 16.976-30.94 1.06-17.806 4.286-38.118-8.453-52.74-12.219-16.851-32.193-26.108-51.252-23.75m-15.229 51.137c17.974 4.389 9.386 31.967-5.054 34.767-21.084 6.14-25.198-33.715-3.427-34.79 2.788-.646 5.698-.682 8.481.023m51.976.15c19.11.832 16.53 39.593-3.176 34.209-18.42-.728-23.605-37.093-1.88-34.899l2.546.201zm-28.494 26.596c8.198 5.578 10.46 33.915-3.517 21.56-13.515 11.605-7.545-19.796.675-23.005 1.104-.443 2.265.42 2.842 1.445m2.195-334.616c-14.229 10.876-15.694 31.729-16.826 49.38-11.924 15.016-18.317-17.046-28.222-20.807-13.34-4.184-21.927 29.446-8.806 29.523 5.758-3.222 10.041-12.519 12.42-.408 9.495 17.295-1.27 41.188-20.186 36.435-11.08-3.557-34.616 16.777-18.37 24.667 15.58-.927 30.404-10.635 45.366.66 12 7.063 28.445-11.02 34.852 9.388 6.61 16.38 11.95 34.137 25.115 45.496 11.352 12.773 16.313 31.407 27.754 44.461 10.572-2.227-2.18-22.81-1.924-31.73-5.748-23.432-11.45-46.952-19.438-69.55-3.737 6.177-21.748 6.427-9.878-2.265 13.403-8.218 10.069-32.094 24.49-38.542 7.543-.104 25.945 17.661 21.583-1.712-8.083-14.778-22.652-20.082-35.548-10.114-15.993.939 1.745-25.985 10.833-26.727 8.51 1.682 20.918-10.818 7.329-14.221-17.366-8.262-28.494 7.506-37.373 22.055-16.686 17.776-15.142-20.38-7.036-29.813 6.139-5.085 2.52-20.837-6.135-16.176" style="stroke-width:.349767"/></g></svg>