<svg xmlns="http://www.w3.org/2000/svg" xml:space="preserve" width="512" height="512"><g style="display:inline"><path fill="#020202" d="M334.744 70.3c-1 .624-2.117 1-2.588 1.77-3.394 5.543-5.43 11.625-7.16 18.629 1.258-.82 1.973-1.269 2.67-1.743 10.763-7.326 22.544-10.986 35.471-8.244 17.952 3.808 28.426 15.676 33.132 32.943 3.397 12.462 2.91 25.138.705 37.695-1.819 10.354-4.375 20.577-6.498 30.88-1.577 7.657-1.743 15.217.531 22.911 4.932 16.686 5.409 33.832 4.184 51.056-1.736 24.396-6.842 48.04-16.265 70.668-7.88 18.924-17.764 36.838-28.315 54.35-9.941 16.5-20.516 32.619-30.82 48.9-.908 1.434-1.777 2.91-2.835 4.23-3.095 3.858-3.31 7.392-.339 11.732 4.375 6.39 1.522 12.384-6.248 13.913-15.892 3.126-31.974 4.455-48.15 4.71-20.108.318-40.11-.868-59.887-4.699-6.243-1.21-9.228-5.105-7.963-10.24.473-1.92 1.55-3.772 2.681-5.43 1.769-2.59 1.762-5.01.077-7.561-6.176-9.35-12.482-18.617-18.479-28.08-14.63-23.09-28.384-46.691-40.166-71.377-11.667-24.443-18.514-50.222-20.894-77.22-1.374-15.578-1.339-31.068 1.622-46.475.256-1.332.452-2.699.907-3.966 3.955-10.997 3.047-22.015.485-33.13-2.248-9.75-4.614-19.507-6.139-29.383-1.759-11.395-1.785-22.912 1.453-34.147 8.988-31.194 41.087-42.658 68.077-24.38.972.658 1.935 1.328 3.335 2.29-1.704-6.916-3.716-13.18-7.121-18.891-.525-.88-1.872-1.397-2.943-1.806-6.06-2.313-9.378-7.434-8.443-13.188.968-5.958 5.744-9.74 12.452-9.742 49.922-.017 99.844-.013 149.766-.025 5.237 0 9.297 2.022 11.452 6.935 1.998 4.554 1.238 8.935-2.09 12.543-1.422 1.54-3.627 2.36-5.657 3.572m-25.367 24.973 6.594-24.525H195.898c-.048.218-.103.315-.078.383.257.714.518 1.428.794 2.136 5.832 14.917 8.836 30.278 7.327 46.358-1.649 17.57-9.195 31.59-24.542 40.949-4.347 2.651-8.7 5.294-12.99 8.037-21.682 13.862-32.845 33.959-34.932 59.34-1.716 20.865.65 41.397 5.37 61.709 5.113 21.998 14.277 42.363 25.047 62.089 14.124 25.87 29.192 51.157 46.082 75.334 3.835 5.489 6.851 11.244 4.336 18.383 29.468 4.905 58.66 5 88.07-.024-2.245-6.36-.187-11.69 3.192-16.745.472-.706.97-1.395 1.451-2.095 20.742-30.189 39.907-61.333 55.764-94.384 16.289-33.95 23.296-69.782 19.648-107.38-2.15-22.16-11.978-40.342-30.394-53.342-6.3-4.447-13.043-8.26-19.476-12.526-10.181-6.752-16.835-16.104-20.06-27.896-3.2-11.697-3.19-23.502-1.13-35.801m-122.602 36.516c1.953-4.295 2.313-8.6.364-13.038-4.15-9.454-10.806-16.388-20.476-20.125-11.962-4.623-24.253-.267-30.882 10.668-3.719 6.136-5.078 12.917-5.323 19.934-.488 13.983 2.283 27.501 6.222 40.823.369 1.245.985 2.417 1.638 3.988 9.285-10.621 20.72-17.767 32.376-24.617 7.053-4.145 12.735-9.564 16.081-17.633m156.533 18.688c11.279 6.294 21.832 13.57 30.755 23.251 4.9-11.885 8.469-34.831 7.34-47.18-.606-6.646-1.99-13.09-5.969-18.674-5.743-8.06-13.417-12.16-23.412-10.752-12.267 1.729-20.57 8.97-26.102 19.707-2.7 5.24-2.618 10.421-.057 15.861 3.723 7.907 9.913 13.2 17.445 17.787"/><path fill="#020202" d="M257.576 236.579c2.51-4.17 5.081-8.304 7.494-12.529.789-1.38 1.2-2.985 1.722-4.509 2.675-7.806 5.796-15.366 10.663-22.15 1.96-2.733 3.377-5.883 4.838-8.94 2.536-5.302 6.195-9.725 10.38-13.754 1.447-1.393 3.12-2.555 5.239-1.432 2.072 1.099 2.457 3.182 1.882 5.091-1.557 5.17-3.091 10.39-5.215 15.34-5.474 12.767-11.38 25.349-16.84 38.12-1.33 3.11-1.613 6.67-2.378 10.022l1.01.657c1.714-1.392 3.797-2.506 5.08-4.22 7.634-10.196 15.013-20.585 19.432-32.687 1.498-4.105 4.314-7.08 7.616-9.652.795-.62 2.425-.935 3.246-.53.786.388 1.474 1.92 1.419 2.906-.317 5.667-.674 11.334-3.024 16.672-1.74 3.953-3.358 7.977-4.733 12.07-1.754 5.216-5.364 9.193-8.42 13.562-2.088 2.986-4.2 5.996-5.872 9.218-.951 1.831-1.04 4.11-1.669 6.843 9.578-3.981 17.016-9.1 21.469-17.752.648-1.26.88-2.73 1.332-4.093 1.26-3.805 3.4-6.798 7.397-8.14 1.86-.624 2.783-.172 2.616 1.919-.32 3.979-.536 7.968-.962 11.935-.121 1.13-.77 2.222-1.257 3.295-3.296 7.263-7.725 13.49-14.125 18.583-8.47 6.74-13.482 16.265-18.355 25.74-1.474 2.866-2.932 5.74-4.443 8.587-4.3 8.095-10.011 14.94-17.804 19.915-5.43 3.466-9.55 8.047-12.405 13.867-.946 1.929-2.61 3.516-4.003 5.212-3.825 4.657-7.701 9.273-11.506 13.947-.722.886-1.21 1.962-1.871 3.06 4.076.304 7.77.43 10.034-3.586.259-.458 1.463-.682 2.144-.556 4.923.909 9.824 1.935 15.032 2.985-.477.376-.768.724-1.14.881-16.394 6.91-33.566 8.793-51.16 7.782-.862-.05-1.959-.681-2.473-1.387-5.652-7.751-11.21-15.57-16.772-23.342 8.815-10.857 19.264-20.343 25.357-33.679l2.222 13.03c.521-2.187 1.18-4.137 1.427-6.138.718-5.817-.556-11.204-3.27-16.447-3.697-7.142-7.054-14.466-10.37-21.797-.74-1.636-1.05-3.642-.96-5.448.32-6.386-.775-12.538-2.75-18.541-.61-1.858-.408-2.96 1.328-3.922.998-.553 1.787-1.482 2.424-2.702l-5.746 2.014c4.099-9.884 3.002-19.586 1.77-29.371 7.668 1.054 11.1 6.08 12.896 12.31.967 3.355 1.539 7.134 1.033 10.535-.923 6.22 1.693 11.039 4.654 15.925.303.5.672.96 1.18 1.678l-4.367 3.751.195.551 8.965-3.308c-1.324 2.585-2.61 5.097-4.067 7.87-.24.538-.309.816-.377 1.093l.52.4.368-.925c7.302-6.342 10.315-14.88 12.447-23.938 2.516-10.69 4.32-21.437 4.417-32.47.025-2.873 1.115-5.781 1.981-8.592 1.52-4.936 2.965-9.925 4.956-14.677 2.35-5.605 5.11-11.053 8.004-16.402.67-1.24 2.583-2.485 3.952-2.517 2.097-.05 2.519 2.153 2.863 3.937 1.21 6.268.336 12.336-1.842 18.256-4.619 12.552-5.765 25.6-5.437 38.827.04 1.644.68 3.762 1.824 4.78 1.895 1.685 1.765 3.165.871 5.062-.178.379-.25.808-.491 1.534-.083.466-.046.612-.01.758zm-7.876 45.81-.67 1.975.761.262c5.832-15.774 13.49-30.879 16.841-47.596-.76.599-1.247 1.376-1.886 1.998-4.333 4.23-6.257 9.25-7.342 15.344-1.67 9.367-4.988 18.44-7.704 28.017m-7.744-36.115v29.413c.36-1.156.692-1.894.814-2.666 1.034-6.531 2.069-13.063 3.02-19.607.46-3.166 1.11-6.369 1.009-9.534-.114-3.525-.969-7.028-1.542-10.534-.076-.46-.399-.878-.774-1.665-1.633 4.901-3.95 9.193-2.527 14.593m22.35 31.497c4.005-5.168 8.215-10.192 11.947-15.55 2.748-3.946 4.87-8.327 7.272-12.514l-.666-.451c-.278.13-.612.198-.826.396-4.553 4.199-9.243 8.259-11.307 14.452-.608 1.823-1.787 3.46-2.741 5.16-2.068 3.685-4.16 7.355-6.243 11.031l.43.294c.646-.837 1.292-1.673 2.134-2.818m18.288-5.72-4.05 5.631.602.62c4.502-4.367 11.21-6.294 13.779-13.673-3.66 2.608-8.16 2.982-10.33 7.423m-7.798-63.557c-.085.379-.323 1.046-.233 1.093 2.058 1.09 4.152 2.113 6.24 3.148l.374-.745c-1.172-2.457-3.23-3.537-6.38-3.496m-29.857-4.81-1.665.551.109.775h6.943l.084-.966c-1.688-.147-3.377-.293-5.47-.36m22.005 32.743.032-.118s-.076.036-.032.118"/><path fill="#050505" d="M186.02 300.35c-6.174-8.132-10.217-17.312-13.176-27.008-.953-3.125-1.71-6.31-2.704-9.426-.065 12.55 1.2 24.666 8.884 35.369 5.274 7.345 10.75 14.414 17.985 20.153l-6.76 7.814c-4.38-5.266-7.737-10.814-10.814-16.577-1.624-3.043-3.39-6.067-5.498-8.786-15.793-20.377-24.53-43.244-24.612-69.173-.005-1.728.644-3.684 1.59-5.145 2.441-3.771 5.217-7.327 7.869-10.961.125-.172.342-.276.94-.74-2.25 17.46-1.792 34.293 4.076 51.072.291-4.492.622-8.527.796-12.57.176-4.113 1.61-7.576 4.704-10.35 1.944-1.744 3.806-3.58 5.833-5.495l2.677 20.91.713-.046c.048-.6.116-1.198.14-1.799.28-7.131.531-14.263.856-21.392.036-.8.252-1.787.761-2.34 5.336-5.789 10.749-11.507 16.51-17.637.25 2.745.52 4.84.592 6.942.027.778-.223 1.702-.664 2.339-15.765 22.717-19.083 47.223-10.644 73.44.078.242.145.488.17.99a.8.8 0 0 1-.224.417m-7.497-39.673.128.478.118-.042c-.09-.23-.179-.46-.246-.437M272.91 339.947c.77-.058 1.614.073 2.294-.203 8.201-3.327 15.63-8.005 22.773-13.17.663-.48 1.352-.924 2.453-1.038-1.399 2.309-2.798 4.618-4.367 7.165-.204.417-.237.595-.41.83-.084.16-.026.261.03.363.024-.164.047-.328.162-.35.281.046.47-.05.66-.146l19.441-15.51c-.793 2.812-1.05 5.975-2.485 8.455-11.15 19.261-26.753 33.811-46.886 43.42-.223.107-.462.18-1.117.43 1.31-4.123 2.42-8.01 3.834-11.784.353-.941 1.648-1.574 2.583-2.245 5.233-3.754 10.497-7.466 15.728-11.222.738-.53 1.356-1.23 2.514-2.298-1.094.145-1.62.124-2.08.29-18.335 6.61-12.128 5.304-30.491 2.082-2.336-.41-4.648-.953-7.438-1.532 2.273-2.406 3.567-4.93 7.44-5.444 6.763-.897 13.393-2.803 20.238-4.166l.13.097c-1.537 1.969-3.074 3.937-4.753 6.094.007.187.156.187.305.187z"/><path fill="#050505" d="M189.487 203.184c10.637-21.306 26.352-37.523 46.835-49.173 1.054-.6 2.399-1.125 3.556-1.033 6.556.519 13.096 1.237 19.693 2.2-20.011 5.99-38.086 15.083-52.512 30.429l.254.639c1.404-.516 2.972-.785 4.182-1.592 4.467-2.973 8.99-2.134 13.65-.532-7.173 6.268-14.345 12.488-21.463 18.769-7.115 6.277-14.178 12.614-21.322 18.977.577-1.913 1.15-4.023 1.854-6.09a97 97 0 0 1 2.346-6.178c.884-2.109 1.885-4.168 2.927-6.416"/><path fill="#070707" d="M336.614 239.06c-2.555-3.03-5.152-6.025-7.625-9.12-.467-.584-.548-1.554-.62-2.362-.356-3.925-2.147-5.595-5.798-7.13-2.182-.916-3.846-3.08-5.704-4.729-.16-.142-.084-.636-.01-.94.669-2.79 1.362-5.574 2.12-8.655 2.325 1.463 4.645 2.82 6.86 4.333 19.509 13.332 33.92 30.61 41.076 53.429 2.382 7.597 1.598 15.459 1.207 23.445-.297-.76-.632-1.509-.884-2.284-4.113-12.66-8.399-25.269-14.896-36.942-6.053-10.876-13.126-21.02-23.152-29.193-.372.039-.485.27-.598.503 2.772 6.471 5.544 12.943 8.157 19.544-.158.13-.133.1-.133.1"/><path fill="#050605" d="M309.954 316.003c3.723-6.676 7.083-13.497 8.773-21.026 2.447-10.899 2.258-21.751-.678-32.513-.471-1.725-.171-2.716 1.575-3.795 1.274 2.737 2.6 5.349 3.726 8.045 7.092 16.99 7.761 34.536 4.999 52.53-.814 5.299-2.823 8.88-7.677 11.073-2.06.93-3.866 2.42-5.757 3.637l6.869-24.76-.75-.407c-3.467 2.524-6.934 5.047-10.643 7.51-.306-.138-.371-.216-.437-.294"/><path fill="#050505" d="M256.676 394.825c-1.609.342-3.012.637-5.184 1.092 1.125-1.056 1.688-1.63 2.298-2.15 8.463-7.194 16.899-14.422 25.438-21.526 1.247-1.037 2.93-1.72 4.525-2.142 7.776-2.057 15.59-3.973 23.393-5.924.47-.117.973-.096 1.85-.174-.613.982-1.005 1.717-1.496 2.378-3.69 4.97-7.34 9.974-11.162 14.843-.67.853-2.044 1.49-3.156 1.6-5.234.523-10.5.739-15.733 1.272-1.315.134-2.603.944-3.805 1.62-.796.447-1.503 1.133-2.099 1.84-3.839 4.559-8.952 6.488-14.87 7.27M338.23 312.618c.357-2.743.984-5.273.943-7.792-.072-4.378 1.529-8.03 3.937-11.507 1.194-1.724 2.2-3.579 3.846-5.313.18 2.983.448 5.964.522 8.95.398 16.127-3.013 31.526-9.03 46.408-.274.674-.678 1.51-1.259 1.81-4.264 2.196-8.588 4.274-13.058 6.202 6.2-12.381 11.721-24.879 14.099-38.758"/><path fill="#040404" d="M162.736 325.168c5.403 3.49 10.557 7.477 16.272 10.345 7.15 3.588 12.61 8.626 16.904 15.232 1.927 2.963 4.238 5.677 6.375 8.504l-.295.68c-8.645-2.003-17.303-3.95-25.912-6.091-.914-.228-1.82-1.464-2.266-2.444a1104 1104 0 0 1-11.34-25.758c.123-.335.193-.401.262-.468M229.466 369.227c11.963-1.098 23.177-4.184 34.458-9.12-1.18 4.198-2.16 7.922-3.325 11.588-.203.641-1.111 1.228-1.825 1.512-9.593 3.814-19.574 6.045-29.83 7.073-.77.078-1.74-.13-2.366-.566-4.56-3.178-9.055-6.45-13.571-9.69l.079-.781c5.382 0 10.764 0 16.38-.016M186.907 194.418c-4.704 9.243-9.288 18.62-10.641 28.986-.76 5.824-2.954 10.4-7.079 14.347-1.635 1.565-2.987 3.425-4.926 5.686 0-6.39-.245-12.116.074-17.812.28-4.986 1.232-9.933 1.811-14.907.274-2.345 1.264-4.111 3.276-5.43 5.603-3.676 11.147-7.44 16.993-11.105.35.122.42.178.492.235"/><path fill="#060606" d="M158.49 309.517c-4.652-5.406-9.191-10.672-13.657-15.999-.555-.662-1.07-1.673-1.013-2.482.496-7.178 1.125-14.346 1.75-21.942 2.117 3.723 3.765 7.202 5.95 10.302 2.226 3.16 4.98 5.946 7.628 9.041l-4.365 5.17c7.687 12.867 17.585 23.701 28.636 33.628-9.382-4.319-17.391-10.528-24.93-17.718"/><path fill="#040404" d="M356.62 210.863c1.755 6.74 3.463 13.273 5.36 20.527-4.144-3.837-7.489-7.497-11.388-10.416-6.17-4.617-10.567-10.184-12.732-17.69-1.138-3.947-3.225-7.621-4.88-11.42-.067-.155-.104-.323-.283-.892.963.313 1.728.484 2.428.801 5.703 2.581 11.431 5.114 17.056 7.859 1.026.5 1.962 1.783 2.336 2.906.88 2.64 1.394 5.403 2.103 8.325M185.85 172.519a6679 6679 0 0 1 18.97-8.128l.286.387q-.686.995-1.372 1.988c-3.088 4.458-6.41 8.776-9.186 13.42-2.026 3.389-4.503 5.902-7.948 7.843-5.38 3.032-10.519 6.495-15.76 9.774-.613.383-1.231.755-2.348.842 2.169-6.747 4.294-13.509 6.564-20.222.276-.816 1.217-1.602 2.043-2.002 2.814-1.366 5.715-2.552 8.751-3.902"/><path fill="#050605" d="M333.824 277.506c-.452-3.798-.99-7.4-1.136-11.016-.318-7.873-1.894-15.464-4.412-22.909-.57-1.684-.558-3.564-.814-5.355l.763-.291c2.51 3.34 4.787 6.896 7.595 9.964 2.959 3.233 3.572 6.477 1.622 10.296-1.574 3.082-.936 5.848.668 8.804 2.42 4.463 4.407 9.161 6.66 13.72.675 1.364.683 2.462-.234 3.732-2.175 3.01-4.233 6.103-6.368 9.207a2329 2329 0 0 0-4.344-16.152"/><path fill="#090909" d="M321.729 180.468c-4.907-1.59-9.83-3.137-14.702-4.83-.625-.216-1.198-1.117-1.439-1.823-2.344-6.878-9.107-9.457-15.004-5.149-3.025 2.21-5.916 2.652-9.394 2.424-3.966-.26-7.961-.06-12.108-.06l-.94-5.75c8.702-1.255 17.354-1.52 25.966-.495 6.383.759 12.682 2.214 19.028 3.302 1.812.311 3.043 1.147 3.906 2.827 1.547 3.014 3.283 5.931 4.91 9.132-.095.303-.159.363-.223.422"/><path fill="#050505" d="M305.472 349.271c3.997-8.027 12.176-10.651 19.133-15.89-.424 1.408-.568 2.21-.897 2.925-2.758 6-5.561 11.979-8.324 17.976-.792 1.719-1.944 2.702-3.904 3.17-5.354 1.278-10.635 2.858-15.96 4.264-.99.262-2.044.276-2.601.345 4.065-4.128 8.256-8.385 12.553-12.79M341.202 258.936c1.386-4.383 2.724-8.57 4.22-13.251 3.08 4.577 5.945 8.804 8.756 13.067.241.366.24.99.155 1.459-1.31 7.168-2.653 14.331-4.096 22.073-.706-1.349-1.195-2.264-1.666-3.189-2.305-4.526-4.5-9.112-6.95-13.557-1.195-2.166-1.68-4.167-.42-6.602"/><path fill="#070707" d="M333.632 206.291c.41.916.747 1.651 1.359 2.987-5.31-3.38-10.072-6.38-14.78-9.463-.453-.297-.734-1.096-.808-1.697-1.091-8.877-8.019-11.886-15.322-6.63-.508.366-1.031.71-1.91 1.312l3.293-9.539c1.305.213 2.708.34 4.058.68 4.764 1.199 9.537 2.378 14.24 3.79 1.032.31 2.135 1.384 2.61 2.387 2.5 5.281 4.81 10.653 7.26 16.173"/><path fill="#060606" d="M209.417 206.28c4.05-4.67 8.08-9.356 12.158-14.001 1.624-1.85 3.478-3.51 4.994-5.438 1.38-1.756 2.863-2.267 5.034-1.75 2.613.623 5.305.913 8.01 1.354-.027.367-.024.608-.065.842-.72 4.179-3.194 6.254-7.294 7.568-8.027 2.573-15.243 6.93-22.39 11.717-.315-.13-.381-.21-.447-.291"/><path fill="#070707" d="M360.088 283.44c1.587 3.773 3.144 7.349 4.615 10.96.252.62.447 1.596.141 2.058-3.268 4.931-6.642 9.792-9.809 14.413l1.792-35.102c1.042 2.436 2.122 4.96 3.261 7.67M198.103 378.196c-3.356-4.373-6.585-8.6-10.237-13.383 3.09.738 5.624 1.437 8.197 1.934 3.083.595 5.609 1.945 7.86 4.217 3.192 3.223 6.702 6.132 10.618 9.665-5.466-.492-10.305-.906-15.136-1.397-.418-.042-.784-.583-1.302-1.036"/><path fill="#090909" d="M293.483 157.071c-.658-.044-1.087-.123-1.504-.08-7.487.757-13.937-1.89-20.095-6.303 4.396-.83 8.74-1.448 12.968-2.52 2.749-.698 4.566-.076 6.418 2.009 2.176 2.45 4.742 4.556 7.705 7.343-2.204-.18-3.73-.303-5.492-.449"/><path fill="#060606" d="M202.791 306.038c-4.757-4.555-9.536-9.088-14.235-13.703-.444-.436-.524-1.383-.536-2.096-.054-3.306-.024-6.613-.024-9.92l.755-.421c2.517 3.673 5.319 7.189 7.478 11.061 2.584 4.635 4.62 9.575 6.842 14.63-.128.315-.204.382-.28.45"/><path fill="#090909" d="M154.059 196.914c2.43-1.944 4.721-3.76 7.307-5.808.122 9.917-4.825 16.935-10.958 23.741.695-5.439 1.314-10.648 2.079-15.836.105-.711.938-1.316 1.572-2.097M307.13 278.762c.713 1.74 1.091 3.49 2.048 4.828 4.127 5.77 1.767 10.895-1.411 16.189-1.607-4.239-3.244-8.337-4.672-12.506-.29-.848.13-1.983.355-2.955.667-2.874 1.401-5.732 2.208-8.998.566 1.317.985 2.29 1.472 3.442M284.112 320.812c-.373.974-.849 1.733-.973 2.546-.647 4.23-3.328 5.746-7.314 6.003-3.193.205-6.36.81-9.855 1.279l20.618-16.364c-.953 2.502-1.685 4.424-2.476 6.536M331.199 183.772c-1.7-3.194-3.295-6.229-4.89-9.263 7.696 3.188 14.012 8.181 20.295 14.064-4.746-.792-9.045-1.402-13.28-2.31-.804-.172-1.354-1.524-2.125-2.491M359.524 317.112c-.113 1.642-.525 3.126-.314 4.515 1.193 7.851-4.696 11.493-9.578 15.884.716-3.97.695-8.288 2.362-11.808 1.592-3.364 4.941-5.896 7.53-8.59"/><path fill="#070707" d="M265.78 189.2c.164-.52.286-.834.386-1.156 1.938-6.259 1.937-6.27 8.437-6.562 1.348-.06 2.702-.009 4.343-.009-1.46 2.99-2.873 5.898-4.307 8.794-.14.282-.458.736-.623.707-2.769-.486-5.527-1.036-8.236-1.773"/><path fill="#0a0a0a" d="M304.239 305.943c-3.058 3.31-5.983 6.474-8.942 9.606-.154.164-.595.057-1.05.086 2.425-7.35 4.782-14.49 7.14-21.63l.503.031c.825 3.918 1.65 7.836 2.349 11.907M228.216 177.798c5.888-2.715 11.593-5.343 17.717-8.165-1.834 8.095-6.54 10.461-13.379 9.582-1.538-.197-3.016-.874-4.338-1.417M312.24 373.54l9.3-15.213 4.338 8.012c-4.367 2.54-8.598 5.001-13.116 7.404-.366-.107-.444-.156-.522-.204"/><path fill="#090909" d="m232.07 207.498-11.288 12.361-3.967-7.013c4.933-1.88 9.778-3.726 14.879-5.52a.8.8 0 0 1 .376.172"/><path fill="#101010" d="M195.755 260.577c.023 6.131.023 12.06.023 17.989l-.808.15c-1.576-3.066-3.157-6.13-4.716-9.204-.102-.202-.14-.557-.031-.726 1.82-2.815 3.667-5.611 5.532-8.209"/><path fill="#050505" d="M186.29 300.122c.085.332.075.735.065 1.138a3.2 3.2 0 0 1-.33-.737c-.005-.172.17-.33.265-.401M277.963 334.003c-.002-.094-.028-.198-.029-.302 0-.017.107-.036.165-.054.02.09.042.18-.06.298-.123.026-.093.049-.076.058"/><path fill="#0a0a0a" d="M312.583 373.767c-.062.19-.232.295-.403.4a.95.95 0 0 1-.022-.503c.16-.077.238-.028.425.103"/><path fill="#040404" d="M162.418 325.46c-.156-.122-.201-.336-.246-.55.14-.005.282-.01.493.121.002.204-.068.27-.247.429"/><path fill="#050605" d="M310.228 316.368c-.124.005-.326-.122-.4-.307.192.02.257.098.4.307"/><path fill="#060606" d="M203.146 305.753c.006.129-.114.342-.295.42.016-.202.092-.269.295-.42"/><path fill="#070707" d="M336.578 239.105c.149.05.31.083.47.117-.135.054-.27.108-.42 0-.014-.163-.04-.133-.05-.117"/><path fill="#090909" d="M231.89 207.321c.118-.119.296-.178.474-.238a.53.53 0 0 1-.16.38c-.134.035-.254-.083-.314-.142"/><path fill="#060606" d="M209.705 206.65c-.132.015-.353-.097-.432-.289.21 0 .276.08.432.289"/><path fill="#040404" d="M186.592 194.157c.077-.193.256-.296.435-.398.022.136.045.272-.026.533-.165.07-.236.013-.409-.135"/><path fill="#090909" d="M322.026 180.21c.01.114-.087.306-.24.378.007-.18.071-.239.24-.377"/><path fill="#fdfdfd" d="M223.53 262.287c-.027.429-.15.737-.272 1.045l-.52-.399c.068-.277.137-.555.348-.913.21-.006.28.07.445.267M257.486 236.496c-.049.212-.187.341-.325.47-.036-.146-.073-.292-.033-.57.075-.132.269.017.358.1"/><path fill="#f2f2f2" d="M266.925 236.387c-.022-.042.054-.077.054-.077s-.032.118-.054.077"/><path fill="#fdfdfd" d="M178.512 260.55c.078.104.168.334.257.564l-.118.042a7 7 0 0 1-.14-.605M295.753 333.402l-.07.492c-.056-.102-.114-.204-.043-.38.128-.073.114-.112.113-.112M272.93 339.956c.166.093.352.194.538.296-.149 0-.298 0-.487-.16-.04-.162-.031-.127-.05-.136"/><path fill="#fdfdfd" d="M295.78 333.458c.046-.162.08-.34.237-.586.19.028.258.123.406.372-.107.25-.297.346-.578.3-.092-.142-.077-.103-.065-.086M328.727 219.314c-.024-.131.089-.363.298-.458.01.211-.076.284-.298.458"/></g></svg>